<svg viewBox="0 0 330 200" xmlns="http://www.w3.org/2000/svg"><g><g><g><g><g><line x1="58.59375" y1="177" x2="53.59375" y2="177" style="visibility: inherit;" fill="rgb(0, 0, 0)" stroke="rgb(204, 204, 204)" stroke-width="1px"></line><line x1="58.59375" y1="157.33333333333334" x2="53.59375" y2="157.33333333333334" style="visibility: inherit;" fill="rgb(0, 0, 0)" stroke="rgb(204, 204, 204)" stroke-width="1px"></line><line x1="58.59375" y1="137.66666666666669" x2="53.59375" y2="137.66666666666669" style="visibility: inherit;" fill="rgb(0, 0, 0)" stroke="rgb(204, 204, 204)" stroke-width="1px"></line><line x1="58.59375" y1="118" x2="53.59375" y2="118" style="visibility: inherit;" fill="rgb(0, 0, 0)" stroke="rgb(204, 204, 204)" stroke-width="1px"></line><line x1="58.59375" y1="98.33333333333334" x2="53.59375" y2="98.33333333333334" style="visibility: inherit;" fill="rgb(0, 0, 0)" stroke="rgb(204, 204, 204)" stroke-width="1px"></line><line x1="58.59375" y1="78.66666666666669" x2="53.59375" y2="78.66666666666669" style="visibility: inherit;" fill="rgb(0, 0, 0)" stroke="rgb(204, 204, 204)" stroke-width="1px"></line><line x1="58.59375" y1="59" x2="53.59375" y2="59" style="visibility: inherit;" fill="rgb(0, 0, 0)" stroke="rgb(204, 204, 204)" stroke-width="1px"></line><line x1="58.59375" y1="39.33333333333334" x2="53.59375" y2="39.33333333333334" style="visibility: inherit;" fill="rgb(0, 0, 0)" stroke="rgb(204, 204, 204)" stroke-width="1px"></line><line x1="58.59375" y1="19.666666666666686" x2="53.59375" y2="19.666666666666686" style="visibility: inherit;" fill="rgb(0, 0, 0)" stroke="rgb(204, 204, 204)" stroke-width="1px"></line><line x1="58.59375" y1="0" x2="53.59375" y2="0" style="visibility: inherit;" fill="rgb(0, 0, 0)" stroke="rgb(204, 204, 204)" stroke-width="1px"></line></g><g transform="translate(48.59375, 0)"><text x="0" y="177" dx="0em" dy="0.3em" style="text-anchor: end; visibility: hidden; font-family: &quot;Helvetica Neue&quot;, sans-serif; font-size: 12px; font-weight: 200;" fill="rgb(50, 49, 63)" stroke="none" stroke-width="1px">-1e-4</text><text x="0" y="157.33333333333334" dx="0em" dy="0.3em" style="text-anchor: end; visibility: inherit; font-family: &quot;Helvetica Neue&quot;, sans-serif; font-size: 12px; font-weight: 200;" fill="rgb(50, 49, 63)" stroke="none" stroke-width="1px">0</text><text x="0" y="137.66666666666669" dx="0em" dy="0.3em" style="text-anchor: end; visibility: hidden; font-family: &quot;Helvetica Neue&quot;, sans-serif; font-size: 12px; font-weight: 200;" fill="rgb(50, 49, 63)" stroke="none" stroke-width="1px">1e-4</text><text x="0" y="118" dx="0em" dy="0.3em" style="text-anchor: end; visibility: inherit; font-family: &quot;Helvetica Neue&quot;, sans-serif; font-size: 12px; font-weight: 200;" fill="rgb(50, 49, 63)" stroke="none" stroke-width="1px">2e-4</text><text x="0" y="98.33333333333334" dx="0em" dy="0.3em" style="text-anchor: end; visibility: hidden; font-family: &quot;Helvetica Neue&quot;, sans-serif; font-size: 12px; font-weight: 200;" fill="rgb(50, 49, 63)" stroke="none" stroke-width="1px">3e-4</text><text x="0" y="78.66666666666669" dx="0em" dy="0.3em" style="text-anchor: end; visibility: inherit; font-family: &quot;Helvetica Neue&quot;, sans-serif; font-size: 12px; font-weight: 200;" fill="rgb(50, 49, 63)" stroke="none" stroke-width="1px">4e-4</text><text x="0" y="59" dx="0em" dy="0.3em" style="text-anchor: end; visibility: hidden; font-family: &quot;Helvetica Neue&quot;, sans-serif; font-size: 12px; font-weight: 200;" fill="rgb(50, 49, 63)" stroke="none" stroke-width="1px">5e-4</text><text x="0" y="39.33333333333334" dx="0em" dy="0.3em" style="text-anchor: end; visibility: inherit; font-family: &quot;Helvetica Neue&quot;, sans-serif; font-size: 12px; font-weight: 200;" fill="rgb(50, 49, 63)" stroke="none" stroke-width="1px">6e-4</text><text x="0" y="19.666666666666686" dx="0em" dy="0.3em" style="text-anchor: end; visibility: hidden; font-family: &quot;Helvetica Neue&quot;, sans-serif; font-size: 12px; font-weight: 200;" fill="rgb(50, 49, 63)" stroke="none" stroke-width="1px">7e-4</text><text x="0" y="0" dx="0em" dy="0.3em" style="text-anchor: end; visibility: hidden; font-family: &quot;Helvetica Neue&quot;, sans-serif; font-size: 12px; font-weight: 200;" fill="rgb(50, 49, 63)" stroke="none" stroke-width="1px">8e-4</text></g><line x1="58.59375" y1="0" x2="58.59375" y2="177" fill="rgb(0, 0, 0)" stroke="rgb(204, 204, 204)" stroke-width="1px"></line></g></g><g transform="translate(58, 0)" clip-path="url(#clip_0)"><clipPath id="clip_0"><rect width="271" height="177"></rect></clipPath><g><g><g><line x1="0" y1="0" x2="0" y2="177" fill="rgb(0, 0, 0)" stroke="rgb(60, 60, 60)" stroke-width="1px" opacity="0.25"></line><line x1="19.38616071428571" y1="0" x2="19.38616071428571" y2="177" fill="rgb(0, 0, 0)" stroke="rgb(60, 60, 60)" stroke-width="1px" opacity="0.25"></line><line x1="38.77232142857142" y1="0" x2="38.77232142857142" y2="177" fill="rgb(0, 0, 0)" stroke="rgb(60, 60, 60)" stroke-width="1px" opacity="0.25"></line><line x1="58.15848214285714" y1="0" x2="58.15848214285714" y2="177" fill="rgb(0, 0, 0)" stroke="rgb(60, 60, 60)" stroke-width="1px" opacity="0.25"></line><line x1="77.54464285714285" y1="0" x2="77.54464285714285" y2="177" fill="rgb(0, 0, 0)" stroke="rgb(60, 60, 60)" stroke-width="1px" opacity="0.25"></line><line x1="96.93080357142857" y1="0" x2="96.93080357142857" y2="177" fill="rgb(0, 0, 0)" stroke="rgb(60, 60, 60)" stroke-width="1px" opacity="0.25"></line><line x1="116.31696428571428" y1="0" x2="116.31696428571428" y2="177" fill="rgb(0, 0, 0)" stroke="rgb(60, 60, 60)" stroke-width="1px" opacity="0.25"></line><line x1="135.703125" y1="0" x2="135.703125" y2="177" fill="rgb(0, 0, 0)" stroke="rgb(60, 60, 60)" stroke-width="1px" opacity="0.25"></line><line x1="155.0892857142857" y1="0" x2="155.0892857142857" y2="177" fill="rgb(0, 0, 0)" stroke="rgb(60, 60, 60)" stroke-width="1px" opacity="0.25"></line><line x1="174.47544642857144" y1="0" x2="174.47544642857144" y2="177" fill="rgb(0, 0, 0)" stroke="rgb(60, 60, 60)" stroke-width="1px" opacity="0.25"></line><line x1="193.86160714285714" y1="0" x2="193.86160714285714" y2="177" fill="rgb(0, 0, 0)" stroke="rgb(60, 60, 60)" stroke-width="1px" opacity="0.25"></line><line x1="213.24776785714286" y1="0" x2="213.24776785714286" y2="177" fill="rgb(0, 0, 0)" stroke="rgb(60, 60, 60)" stroke-width="1px" opacity="0.25"></line><line x1="232.63392857142856" y1="0" x2="232.63392857142856" y2="177" fill="rgb(0, 0, 0)" stroke="rgb(60, 60, 60)" stroke-width="1px" opacity="0.25"></line><line x1="252.0200892857143" y1="0" x2="252.0200892857143" y2="177" fill="rgb(0, 0, 0)" stroke="rgb(60, 60, 60)" stroke-width="1px" opacity="0.25"></line><line x1="271.40625" y1="0" x2="271.40625" y2="177" fill="rgb(0, 0, 0)" stroke="rgb(60, 60, 60)" stroke-width="1px" opacity="0.25"></line></g><g><line x1="0" y1="177" x2="271.40625" y2="177" fill="rgb(0, 0, 0)" stroke="rgb(60, 60, 60)" stroke-width="1px" opacity="0.25"></line><line x1="0" y1="157.33333333333334" x2="271.40625" y2="157.33333333333334" fill="rgb(0, 0, 0)" stroke="rgb(60, 60, 60)" stroke-width="1px" opacity="0.25"></line><line x1="0" y1="137.66666666666669" x2="271.40625" y2="137.66666666666669" fill="rgb(0, 0, 0)" stroke="rgb(60, 60, 60)" stroke-width="1px" opacity="0.25"></line><line x1="0" y1="118" x2="271.40625" y2="118" fill="rgb(0, 0, 0)" stroke="rgb(60, 60, 60)" stroke-width="1px" opacity="0.25"></line><line x1="0" y1="98.33333333333334" x2="271.40625" y2="98.33333333333334" fill="rgb(0, 0, 0)" stroke="rgb(60, 60, 60)" stroke-width="1px" opacity="0.25"></line><line x1="0" y1="78.66666666666669" x2="271.40625" y2="78.66666666666669" fill="rgb(0, 0, 0)" stroke="rgb(60, 60, 60)" stroke-width="1px" opacity="0.25"></line><line x1="0" y1="59" x2="271.40625" y2="59" fill="rgb(0, 0, 0)" stroke="rgb(60, 60, 60)" stroke-width="1px" opacity="0.25"></line><line x1="0" y1="39.33333333333334" x2="271.40625" y2="39.33333333333334" fill="rgb(0, 0, 0)" stroke="rgb(60, 60, 60)" stroke-width="1px" opacity="0.25"></line><line x1="0" y1="19.666666666666686" x2="271.40625" y2="19.666666666666686" fill="rgb(0, 0, 0)" stroke="rgb(60, 60, 60)" stroke-width="1px" opacity="0.25"></line><line x1="0" y1="0" x2="271.40625" y2="0" fill="rgb(0, 0, 0)" stroke="rgb(60, 60, 60)" stroke-width="1px" opacity="0.25"></line></g></g></g><g><g><line x1="0" y1="157.33333333333334" x2="271.40625" y2="157.33333333333334" fill="rgb(0, 0, 0)" stroke="rgb(153, 153, 153)" stroke-width="1.5px"></line></g></g><g><g><line x1="19.38616071428571" y1="0" x2="19.38616071428571" y2="177" fill="rgb(0, 0, 0)" stroke="rgb(153, 153, 153)" stroke-width="1.5px"></line></g></g><g><g><g><g><g><path stroke="rgb(204, 51, 17)" stroke-width="2px" d="M22.487946428571426,-4.933160297252044L22.875669642857144,11.603268564458205L23.263392857142858,26.358947727728946L23.65111607142857,39.53083409336915L24.038839285714285,51.49107776908002L24.4265625,62.32642826268652L24.814285714285713,72.15191008631749L25.20200892857143,80.98644901274182L25.589732142857144,88.91072858276381L25.977455357142855,95.95103931405818L26.365178571428572,102.12836524822562L26.752901785714286,107.41265186770994L27.140625,111.97523453590254L27.528348214285714,116.25804163039143L27.916071428571428,120.41860587244504L28.30379464285714,124.43507247357446L28.69151785714286,128.09853508635484L29.07924107142857,131.38859409555482L29.466964285714283,134.27473211932957L29.8546875,136.8291647393789L30.242410714285715,139.0889485920403L30.63013392857143,141.1455410129969L31.017857142857142,143.00983661279486L31.405580357142856,144.71716370708842L31.793303571428574,146.23851877277403L32.18102678571429,147.581116967534L32.56875,148.70231224220262L32.956473214285715,149.60547657765323L33.34419642857143,150.2640046608974L33.73191964285714,150.83595071477635L34.11964285714286,151.42403403054846L34.50736607142857,152.17551124255152L34.895089285714285,152.95137611345686L35.2828125,153.7048378908548L35.67053571428571,154.3379627122909L36.05825892857143,154.83562815563158L36.44598214285714,155.13542146807106L36.833705357142854,155.19350099307457L37.221428571428575,155.02598068723006L37.60915178571428,154.9654938521541L37.996875,155.17805466218817L38.38459821428572,155.56708886780547L38.77232142857142,155.96033733256294L39.160044642857144,156.26741907130915L39.54776785714286,156.44217646808067L39.935491071428565,156.3956089583189L40.323214285714286,155.94485897997458L40.7109375,154.93353795341883L41.098660714285714,154.14262707483826L41.48638392857143,154.04673201453156L41.87410714285714,154.61967241683442L42.26183035714286,155.2735038947851L42.64955357142857,155.8427196860726L43.03727678571428,156.25591852993222L43.425000000000004,156.53787719401484L43.81272321428571,156.70800594293792L44.20044642857143,156.7893617296068L44.588169642857146,156.7781058950801L44.97589285714285,156.65877026255856L45.363616071428574,156.3750080211014L45.75133928571429,155.93228964374188L46.1390625,155.4314019098946L46.526785714285715,155.19124849946996L46.91450892857143,155.21276280977094L47.30223214285714,155.43425348113044L47.68995535714286,155.6039924711034L48.07767857142857,155.60454703843607L48.465401785714285,155.3764432812232L48.853125,155.20957310534817L49.24084821428572,155.22026744316213L49.628571428571426,155.44529371757014L50.01629464285714,155.7145954963598L50.40401785714286,155.97755908097193L50.79174107142857,156.1816402854895L51.17946428571429,156.32784068849787L51.5671875,156.4131636077704L51.95491071428571,156.44201615494876L52.34263392857143,156.41553005942885L52.730357142857144,156.31707333197727L53.11808035714285,156.14013827121792L53.50580357142857,155.83606114926036L53.893526785714286,155.47611441703071L54.28125,155.08933419594283L54.668973214285714,154.93001017438405L55.05669642857143,154.9433679783304L55.44441964285714,155.19418849793465L55.832142857142856,155.51171992903008L56.21986607142858,155.85368908597735L56.60758928571428,156.13778507618932L56.9953125,156.36257547028347L57.38303571428572,156.5132679608575L57.770758928571425,156.60423007364426L58.15848214285714,156.62903781409491L58.54620535714286,156.59606510151337L58.93392857142857,156.48417240289302L59.32165178571429,156.29601839400556L59.709375,156.0096615269534L60.09709821428571,155.74506443524382L60.48482142857143,155.61928215405112L60.87254464285714,155.7087189479925L61.26026785714286,155.89454052104887L61.64799107142857,156.03225980992977L62.035714285714285,155.9976654451746L62.423437500000006,155.66490517245632L62.81116071428571,155.1922055128926L63.198883928571426,154.80851018311398L63.58660714285715,154.87869602206422L63.974330357142854,155.17200223863506L64.36205357142858,155.58263645898532L64.74977678571429,155.9478292675127L65.1375,156.2432544791017L65.52522321428572,156.44910068401418L65.91294642857143,156.58122267359974L66.30066964285714,156.6408878982716L66.68839285714286,156.63963327850692L67.07611607142857,156.56955361938196L67.46383928571429,156.44062182415044L67.8515625,156.24342892381995L68.23928571428571,156.01946890265276L68.62700892857143,155.76840316023475L69.01473214285714,155.5780252694934L69.40245535714286,155.44299176160902L69.79017857142857,155.47489630166012L70.17790178571428,155.59137195177948L70.565625,155.80421323247498L70.95334821428573,156.00604203736546L71.34107142857142,156.17843363004172L71.72879464285714,156.2474260431192L72.11651785714287,156.21110812455697L72.50424107142857,156.10840811356945L72.89196428571428,156.05467915949595L73.27968750000001,156.08417357561927L73.66741071428571,156.1422515196289L74.05513392857142,156.18177190949035L74.44285714285715,156.13886512806477L74.83058035714285,156.049974323047L75.21830357142856,155.90223801225096L75.60602678571429,155.7979309568501L75.99375,155.68699610442832L76.3814732142857,155.6421347288394L76.76919642857143,155.624633191515L77.15691964285715,155.71549160525768L77.54464285714285,155.8680585545563L77.93236607142858,156.06873474504573L78.32008928571429,156.2537129466811L78.70781249999999,156.4063645884736L79.09553571428572,156.5013059725568L79.48325892857143,156.5363303329011L79.87098214285713,156.50110368880217L80.25870535714286,156.40632317330426L80.64642857142857,156.25761895906143L81.03415178571429,156.0989636538131L81.421875,155.95047256107136L81.80959821428571,155.88535470809705L82.19732142857143,155.87221241999907L82.58504464285714,155.9310908018949L82.97276785714286,155.96634234903541L83.36049107142858,155.98856966490564L83.74821428571428,155.92388045727526L84.1359375,155.8584438957712L84.52366071428573,155.78190966424444L84.91138392857142,155.80542415575889L85.29910714285714,155.9052717420249L85.68683035714287,156.08742521229001L86.07455357142857,156.28470733798838L86.46227678571428,156.46866721337153L86.85000000000001,156.61087988876912L87.23772321428572,156.70647299193257L87.62544642857142,156.74660693864425L88.01316964285715,156.72291659313527L88.40089285714286,156.61410593254476L88.78861607142856,156.3843438355568L89.17633928571429,156.04055552008361L89.5640625,155.63747298990893L89.9517857142857,155.40651305559524L90.33950892857143,155.29920889283503L90.72723214285715,155.38025616353593L91.11495535714285,155.51747255862426L91.50267857142858,155.74266448829349L91.89040178571429,155.9755270434713L92.278125,156.2037399559888L92.66584821428572,156.38445321801058L93.05357142857143,156.51096376404257L93.44129464285714,156.5705762115298L93.82901785714286,156.5743108197562L94.21674107142857,156.55076314254762L94.60446428571429,156.5233949939576L94.9921875,156.48074021155682L95.37991071428571,156.38525179995753L95.76763392857143,156.1872058277078L96.15535714285714,155.93416796262423L96.54308035714286,155.7008357766411L96.93080357142857,155.6702504457322L97.3185267857143,155.75981979330544L97.70625,155.95262886065316L98.09397321428571,156.12065716663906L98.48169642857144,156.26116630466612L98.86941964285714,156.32592563493873L99.25714285714285,156.34180154403396L99.64486607142858,156.28643070925816L100.03258928571428,156.2142085923358L100.4203125,156.14895570800294L100.80803571428572,156.1765064522238L101.19575892857142,156.27896281375348L101.58348214285714,156.4334349047082L101.97120535714286,156.58609584998243L102.35892857142858,156.7150483501167L102.74665178571428,156.80319608578588L103.134375,156.838352754033L103.52209821428572,156.79050593487676L103.90982142857142,156.57991340067713L104.29754464285715,156.13857057677868L104.68526785714286,155.55384334596178L105.07299107142856,155.27279787649155L105.46071428571429,155.22847384655685L105.8484375,155.3976831629341L106.2361607142857,155.6099202367729L106.62388392857143,155.8601135092851L107.01160714285714,156.0787287053281L107.39933035714286,156.25616843017752L107.78705357142857,156.39647730142872L108.17477678571429,156.51737579753774L108.5625,156.61905006957576L108.95022321428571,156.69266803222337L109.33794642857143,156.72505832381606L109.72566964285714,156.70296813512394L110.11339285714286,156.5994164293304L110.50111607142857,156.4079039686116L110.88883928571428,156.12409582939944L111.2765625,155.88372444499308L111.66428571428571,155.74201219565063L112.05200892857142,155.81020639557448L112.43973214285715,155.96410533444563L112.82745535714285,156.1771261730536L113.21517857142857,156.36008891759357L113.6029017857143,156.51120487020881L113.990625,156.60073920685323L114.37834821428571,156.63870294197673L114.76607142857144,156.5931879698614L115.15379464285714,156.45739125229272L115.54151785714285,156.19016265197678L115.92924107142858,155.98178975058562L116.31696428571428,155.9772563832221L116.70468749999999,156.16568224978153L117.09241071428572,156.3957468490969L117.48013392857143,156.59172884492895L117.86785714285713,156.73294900519107L118.25558035714286,156.81813207945004L118.64330357142858,156.8616300654415L119.03102678571427,156.86562660146572L119.41875,156.8405528860641L119.80647321428572,156.7504761354904L120.19419642857142,156.52171126288576L120.58191964285714,155.92153942495068L120.96964285714286,155.13448818254193L121.35736607142857,154.7079587455054L121.74508928571429,154.95931981132043L122.1328125,155.4310620409405L122.52053571428571,155.91057701808958L122.90825892857143,156.290636134899L123.29598214285714,156.56651924039932L123.68370535714287,156.74999586964068L124.07142857142857,156.86145460892982L124.45915178571428,156.91136214351135L124.84687500000001,156.90624625150414L125.23459821428571,156.83857997455337L125.62232142857142,156.70793344140728L126.01004464285715,156.51270257408015L126.39776785714285,156.31700078145357L126.78549107142857,156.15987642589658L127.1732142857143,156.11880435011537L127.5609375,156.13309518372796L127.94866071428571,156.1998107473626L128.33638392857142,156.2426650797695L128.72410714285715,156.29692783233645L129.11183035714285,156.33508710661323L129.49955357142858,156.42521487936997L129.88727678571428,156.52284660491713L130.275,156.6320456381857L130.6627232142857,156.68074888552417L131.05044642857143,156.60802817577934L131.43816964285713,156.29505323289845L131.82589285714286,155.91597227476151L132.21361607142856,155.74832905194552L132.6013392857143,155.90460692293553L132.9890625,156.13514970701075L133.37678571428572,156.2945293812656L133.76450892857144,156.28523713851226L134.15223214285714,156.12142702243594L134.53995535714284,155.94365028942767L134.92767857142857,155.9338071177434L135.31540178571427,156.06106276176396" style="fill: none;" fill="none"></path></g></g></g></g><g opacity="0.2"><g><g><g><path stroke="rgb(204, 51, 17)" stroke-width="2px" d="M21.712500000000002,-11.15559125225991L22.100223214285716,6.633696706034243L22.487946428571426,22.347105256592243L22.875669642857144,36.15793820253265L23.263392857142858,48.35863354864219L23.65111607142857,59.216982817898185L24.038839285714285,69.39239101189499L24.4265625,78.55822642349328L24.814285714285713,86.87858333671467L25.20200892857143,94.23202660105503L25.589732142857144,100.79379464825617L25.977455357142855,106.50971787686771L26.365178571428572,111.39341309604546L26.752901785714286,115.33859879220836L27.140625,118.81885831531449L27.528348214285714,122.68211134453304L27.916071428571428,126.65937009244226L28.30379464285714,130.45972479639266L28.69151785714286,133.59370296720107L29.07924107142857,136.32366857875604L29.466964285714283,138.60393177015553L29.8546875,140.66080974779715L30.242410714285715,142.4786222894521L30.63013392857143,144.23042850778438L31.017857142857142,145.80627939427117L31.405580357142856,147.2781540088278L31.793303571428574,148.52055118968323L32.18102678571429,149.59501416350636L32.56875,150.3841051060202L32.956473214285715,150.96022305754013L33.34419642857143,151.25179677557512L33.73191964285714,151.69386979028545L34.11964285714286,152.30615900093107L34.50736607142857,153.30272705804478L34.895089285714285,154.11517341825916L35.2828125,154.83503055604524L35.67053571428571,155.28764994398807L36.05825892857143,155.58212632042705L36.44598214285714,155.58511143665237L36.833705357142854,155.2806202805708L37.221428571428575,154.77470022847896L37.60915178571428,154.87476359954357L37.996875,155.4968958772321L38.38459821428572,156.15064017622353L38.77232142857142,156.55021002969443L39.160044642857144,156.72804167942618L39.54776785714286,156.70431256323718L39.935491071428565,156.32575769367637L40.323214285714286,155.2687340124588L40.7109375,153.41655641358616L41.098660714285714,152.95626075696782L41.48638392857143,153.90288942407156L41.87410714285714,155.47908302028858L42.26183035714286,156.2542511117111L42.64955357142857,156.6965433730038L43.03727678571428,156.87571679572162L43.425000000000004,156.96081519013873L43.81272321428571,156.96319906632257L44.20044642857143,156.91139540961012L44.588169642857146,156.76122214329007L44.97589285714285,156.47976681377622L45.363616071428574,155.94936465891564L45.75133928571429,155.26821207770263L46.1390625,154.68007030912364L46.526785714285715,154.831018383833L46.91450892857143,155.24503427522237L47.30223214285714,155.7664894881697L47.68995535714286,155.85860095606282L48.07767857142857,155.6053788894351L48.465401785714285,155.0342876454039L48.853125,154.95926784153562L49.24084821428572,155.2363089498831L49.628571428571426,155.7828331291821L50.01629464285714,156.11854816454434L50.40401785714286,156.37200445789009L50.79174107142857,156.48776209226585L51.17946428571429,156.5471412930104L51.5671875,156.5411479866792L51.95491071428571,156.4852949757163L52.34263392857143,156.37580091614896L52.730357142857144,156.1693882407999L53.11808035714285,155.87473568007894L53.50580357142857,155.379945466324L53.893526785714286,154.93619431868623L54.28125,154.50916386431103L54.668973214285714,154.69102414204585L55.05669642857143,154.96340468424992L55.44441964285714,155.570419277341L55.832142857142856,155.98801707567327L56.21986607142858,156.36664282139827L56.60758928571428,156.56392906150722L56.9953125,156.6997610614247L57.38303571428572,156.7393066967185L57.770758928571425,156.7406732428244L58.15848214285714,156.66624942477088L58.54620535714286,156.54660603264105L58.93392857142857,156.3163333549625L59.32165178571429,156.01378738067433L59.709375,155.5801262263752L60.09709821428571,155.34816879767945L60.48482142857143,155.43060873226204L60.87254464285714,155.84287413890465L61.26026785714286,156.1732728806334L61.64799107142857,156.2388387432511L62.035714285714285,155.9457738980418L62.423437500000006,155.16576476337892L62.81116071428571,154.48315602354705L63.198883928571426,154.232967188446L63.58660714285715,154.9839747804896L63.974330357142854,155.6119615634913L64.36205357142858,156.1985877895107L64.74977678571429,156.49561848030376L65.1375,156.6863922964852L65.52522321428572,156.7578699913829L65.91294642857143,156.77940565797812L66.30066964285714,156.73038573527933L66.68839285714286,156.63775134885995L67.07611607142857,156.4644341306945L67.46383928571429,156.24722413130317L67.8515625,155.9476395733242L68.23928571428571,155.683528870902L68.62700892857143,155.3918045466077L69.01473214285714,155.2924584333814L69.40245535714286,155.2404414997824L69.79017857142857,155.52275311173676L70.17790178571428,155.76608542695854L70.565625,156.12347515351817L70.95334821428573,156.30878524470123L71.34107142857142,156.43702101905606L71.72879464285714,156.3509146627354L72.11651785714287,156.1566312467136L72.50424107142857,155.9543580970882L72.89196428571428,155.97408572838563L73.27968750000001,156.1284151998043L73.66741071428571,156.22936843564335L74.05513392857142,156.24105249428248L74.44285714285715,156.0745049559264L74.83058035714285,155.91663811552039L75.21830357142856,155.68063354605692L75.60602678571429,155.64147037374883L75.99375,155.5205938257956L76.3814732142857,155.57484266545603L76.76919642857143,155.59838088552837L77.15691964285715,155.85177922587172L77.54464285714285,156.09690897850427L77.93236607142858,156.36974903077984L78.32008928571429,156.5311802491342L78.70781249999999,156.6353420511623L79.09553571428572,156.64371804868156L79.48325892857143,156.58886687341752L79.87098214285713,156.4482637226538L80.25870535714286,156.26415240005736L80.64642857142857,156.03456263769718L81.03415178571429,155.86098069594058L81.421875,155.7277359219588L81.80959821428571,155.7876779286356L82.19732142857143,155.8524989878521L82.58504464285714,156.01940837473862L82.97276785714286,156.01921966974624L83.36049107142858,156.02191063871092L83.74821428571428,155.8268466458297L84.1359375,155.7602890535151L84.52366071428573,155.6671083169543L84.91138392857142,155.84069589303058L85.29910714285714,156.0550431214239L85.68683035714287,156.36065541768767L86.07455357142857,156.58063052653597L86.46227678571428,156.74460702644623L86.85000000000001,156.82419890186551L87.23772321428572,156.84986264667774L87.62544642857142,156.80680785871178L88.01316964285715,156.68738107487175L88.40089285714286,156.45088994165903L88.78861607142856,156.03970069007482L89.17633928571429,155.52487304687384L89.5640625,155.0328491946469L89.9517857142857,155.06007315412475L90.33950892857143,155.1382526486947L90.72723214285715,155.5018270695873L91.11495535714285,155.7232971512567L91.50267857142858,156.08045238279738L91.89040178571429,156.32482087623794L92.278125,156.54605932476503L92.66584821428572,156.6555231110433L93.05357142857143,156.70072958309052L93.44129464285714,156.65999488276066L93.82901785714286,156.57991273209578L94.21674107142857,156.51544162673477L94.60446428571429,156.48234277107258L94.9921875,156.41675803795565L95.37991071428571,156.24201918255858L95.76763392857143,155.89013686933322L96.15535714285714,155.55461116499887L96.54308035714286,155.35083749766636L96.93080357142857,155.62437244936882L97.3185267857143,155.89417381466532L97.70625,156.24184246167474L98.09397321428571,156.3726996256179L98.48169642857144,156.47193001170672L98.86941964285714,156.42306463034765L99.25714285714285,156.36561540767676L99.64486607142858,156.20337445709447L100.03258928571428,156.10587541695227L100.4203125,156.05107638150366L100.80803571428572,156.2178325685551L101.19575892857142,156.43264735604802L101.58348214285714,156.66514304114025L101.97120535714286,156.81508726789374L102.35892857142858,156.90847710031812L102.74665178571428,156.93541768928966L103.134375,156.89108775640366L103.52209821428572,156.71873570614238L103.90982142857142,156.26402459937768L104.29754464285715,155.47655634093098L104.68526785714286,154.6767524997364L105.07299107142856,154.85122967228622L105.46071428571429,155.16198780165482L105.8484375,155.65149713749997L106.2361607142857,155.92827584753104L106.62388392857143,156.23540341805347L107.01160714285714,156.40665149939255L107.39933035714286,156.5223280174517L107.78705357142857,156.6069406083055L108.17477678571429,156.69872354170124L108.5625,156.77156147763284L108.95022321428571,156.80309497619479L109.33794642857143,156.77364376120508L109.72566964285714,156.66983285208576L110.11339285714286,156.44408887064006L110.50111607142857,156.12063527753344L110.88883928571428,155.6983836205812L111.2765625,155.52316736838353L111.66428571428571,155.52944382163696L112.05200892857142,155.91249769546025L112.43973214285715,156.19495374275235L112.82745535714285,156.49665743096557L113.21517857142857,156.63453303440352L113.6029017857143,156.73787879913166L113.990625,156.73504071181983L114.37834821428571,156.69564854466202L114.76607142857144,156.52491551168836L115.15379464285714,156.2536961759397L115.54151785714285,155.78931975150286L115.92924107142858,155.66923039849885L116.31696428571428,155.9704563321769L116.70468749999999,156.44832104962066L117.09241071428572,156.7408437480699L117.48013392857143,156.88570183867705L117.86785714285713,156.94477924558427L118.25558035714286,156.94590669083846L118.64330357142858,156.9268770444287L119.03102678571427,156.87162140550208L119.41875,156.80294231296162L119.80647321428572,156.61536100962985L120.19419642857142,156.1785639539788L120.58191964285714,155.0212816680481L120.96964285714286,153.9539113189288L121.35736607142857,154.06816458995067L121.74508928571429,155.33636141004294L122.1328125,156.13867538537065L122.52053571428571,156.62984948381322L122.90825892857143,156.8607248101131L123.29598214285714,156.98034389864975L123.68370535714287,157.02521081350278L124.07142857142857,157.02864271786348L124.45915178571428,156.98622344538367L124.84687500000001,156.89857241349333L125.23459821428571,156.7370805591272L125.62232142857142,156.51196364168814L126.01004464285715,156.21985627308945L126.39776785714285,156.02344809251372L126.78549107142857,155.92418989256112L127.1732142857143,156.0571962364435L127.5609375,156.15453143414683L127.94866071428571,156.29988409281455L128.33638392857142,156.3069465783798L128.72410714285715,156.37832196118688L129.11183035714285,156.39232601802846L129.49955357142858,156.56040653850505L129.88727678571428,156.66929419323787L130.275,156.79584418808858L130.6627232142857,156.75380375653185L131.05044642857143,156.49894711116212L131.43816964285713,155.82559081857713L131.82589285714286,155.3473508375561L132.21361607142856,155.49686421772154L132.6013392857143,156.13902372942053L132.9890625,156.48096388312356L133.37678571428572,156.5335988926478L133.76450892857144,156.27129877438225L134.15223214285714,155.87571184832146L134.53995535714284,155.67698518991529L134.92767857142857,155.91904236021705L135.31540178571427,156.25194622779478" style="fill: none;" fill="none"></path></g></g></g></g></g></g><g transform="translate(58, 177)" clip-path="url(#clip_1)"><clipPath id="clip_1"><rect width="271" height="23"></rect></clipPath><g><g><line x1="0" y1="0" x2="0" y2="5" style="visibility: inherit;" fill="rgb(0, 0, 0)" stroke="rgb(204, 204, 204)" stroke-width="1px"></line><line x1="19.38616071428571" y1="0" x2="19.38616071428571" y2="5" style="visibility: inherit;" fill="rgb(0, 0, 0)" stroke="rgb(204, 204, 204)" stroke-width="1px"></line><line x1="38.77232142857142" y1="0" x2="38.77232142857142" y2="5" style="visibility: inherit;" fill="rgb(0, 0, 0)" stroke="rgb(204, 204, 204)" stroke-width="1px"></line><line x1="58.15848214285714" y1="0" x2="58.15848214285714" y2="5" style="visibility: inherit;" fill="rgb(0, 0, 0)" stroke="rgb(204, 204, 204)" stroke-width="1px"></line><line x1="77.54464285714285" y1="0" x2="77.54464285714285" y2="5" style="visibility: inherit;" fill="rgb(0, 0, 0)" stroke="rgb(204, 204, 204)" stroke-width="1px"></line><line x1="96.93080357142857" y1="0" x2="96.93080357142857" y2="5" style="visibility: inherit;" fill="rgb(0, 0, 0)" stroke="rgb(204, 204, 204)" stroke-width="1px"></line><line x1="116.31696428571428" y1="0" x2="116.31696428571428" y2="5" style="visibility: inherit;" fill="rgb(0, 0, 0)" stroke="rgb(204, 204, 204)" stroke-width="1px"></line><line x1="135.703125" y1="0" x2="135.703125" y2="5" style="visibility: inherit;" fill="rgb(0, 0, 0)" stroke="rgb(204, 204, 204)" stroke-width="1px"></line><line x1="155.0892857142857" y1="0" x2="155.0892857142857" y2="5" style="visibility: inherit;" fill="rgb(0, 0, 0)" stroke="rgb(204, 204, 204)" stroke-width="1px"></line><line x1="174.47544642857144" y1="0" x2="174.47544642857144" y2="5" style="visibility: inherit;" fill="rgb(0, 0, 0)" stroke="rgb(204, 204, 204)" stroke-width="1px"></line><line x1="193.86160714285714" y1="0" x2="193.86160714285714" y2="5" style="visibility: inherit;" fill="rgb(0, 0, 0)" stroke="rgb(204, 204, 204)" stroke-width="1px"></line><line x1="213.24776785714286" y1="0" x2="213.24776785714286" y2="5" style="visibility: inherit;" fill="rgb(0, 0, 0)" stroke="rgb(204, 204, 204)" stroke-width="1px"></line><line x1="232.63392857142856" y1="0" x2="232.63392857142856" y2="5" style="visibility: inherit;" fill="rgb(0, 0, 0)" stroke="rgb(204, 204, 204)" stroke-width="1px"></line><line x1="252.0200892857143" y1="0" x2="252.0200892857143" y2="5" style="visibility: inherit;" fill="rgb(0, 0, 0)" stroke="rgb(204, 204, 204)" stroke-width="1px"></line><line x1="271.40625" y1="0" x2="271.40625" y2="5" style="visibility: inherit;" fill="rgb(0, 0, 0)" stroke="rgb(204, 204, 204)" stroke-width="1px"></line></g><g transform="translate(0, 8)"><text x="0" y="0" dx="0em" dy="0.95em" style="text-anchor: middle; visibility: hidden; font-family: &quot;Helvetica Neue&quot;, sans-serif; font-size: 12px; font-weight: 200;" fill="rgb(50, 49, 63)" stroke="none" stroke-width="1px">-50</text><text x="19.38616071428571" y="0" dx="0em" dy="0.95em" style="text-anchor: middle; visibility: inherit; font-family: &quot;Helvetica Neue&quot;, sans-serif; font-size: 12px; font-weight: 200;" fill="rgb(50, 49, 63)" stroke="none" stroke-width="1px">0</text><text x="38.77232142857142" y="0" dx="0em" dy="0.95em" style="text-anchor: middle; visibility: hidden; font-family: &quot;Helvetica Neue&quot;, sans-serif; font-size: 12px; font-weight: 200;" fill="rgb(50, 49, 63)" stroke="none" stroke-width="1px">50</text><text x="58.15848214285714" y="0" dx="0em" dy="0.95em" style="text-anchor: middle; visibility: inherit; font-family: &quot;Helvetica Neue&quot;, sans-serif; font-size: 12px; font-weight: 200;" fill="rgb(50, 49, 63)" stroke="none" stroke-width="1px">100</text><text x="77.54464285714285" y="0" dx="0em" dy="0.95em" style="text-anchor: middle; visibility: hidden; font-family: &quot;Helvetica Neue&quot;, sans-serif; font-size: 12px; font-weight: 200;" fill="rgb(50, 49, 63)" stroke="none" stroke-width="1px">150</text><text x="96.93080357142857" y="0" dx="0em" dy="0.95em" style="text-anchor: middle; visibility: inherit; font-family: &quot;Helvetica Neue&quot;, sans-serif; font-size: 12px; font-weight: 200;" fill="rgb(50, 49, 63)" stroke="none" stroke-width="1px">200</text><text x="116.31696428571428" y="0" dx="0em" dy="0.95em" style="text-anchor: middle; visibility: hidden; font-family: &quot;Helvetica Neue&quot;, sans-serif; font-size: 12px; font-weight: 200;" fill="rgb(50, 49, 63)" stroke="none" stroke-width="1px">250</text><text x="135.703125" y="0" dx="0em" dy="0.95em" style="text-anchor: middle; visibility: inherit; font-family: &quot;Helvetica Neue&quot;, sans-serif; font-size: 12px; font-weight: 200;" fill="rgb(50, 49, 63)" stroke="none" stroke-width="1px">300</text><text x="155.0892857142857" y="0" dx="0em" dy="0.95em" style="text-anchor: middle; visibility: hidden; font-family: &quot;Helvetica Neue&quot;, sans-serif; font-size: 12px; font-weight: 200;" fill="rgb(50, 49, 63)" stroke="none" stroke-width="1px">350</text><text x="174.47544642857144" y="0" dx="0em" dy="0.95em" style="text-anchor: middle; visibility: inherit; font-family: &quot;Helvetica Neue&quot;, sans-serif; font-size: 12px; font-weight: 200;" fill="rgb(50, 49, 63)" stroke="none" stroke-width="1px">400</text><text x="193.86160714285714" y="0" dx="0em" dy="0.95em" style="text-anchor: middle; visibility: hidden; font-family: &quot;Helvetica Neue&quot;, sans-serif; font-size: 12px; font-weight: 200;" fill="rgb(50, 49, 63)" stroke="none" stroke-width="1px">450</text><text x="213.24776785714286" y="0" dx="0em" dy="0.95em" style="text-anchor: middle; visibility: inherit; font-family: &quot;Helvetica Neue&quot;, sans-serif; font-size: 12px; font-weight: 200;" fill="rgb(50, 49, 63)" stroke="none" stroke-width="1px">500</text><text x="232.63392857142856" y="0" dx="0em" dy="0.95em" style="text-anchor: middle; visibility: hidden; font-family: &quot;Helvetica Neue&quot;, sans-serif; font-size: 12px; font-weight: 200;" fill="rgb(50, 49, 63)" stroke="none" stroke-width="1px">550</text><text x="252.0200892857143" y="0" dx="0em" dy="0.95em" style="text-anchor: middle; visibility: inherit; font-family: &quot;Helvetica Neue&quot;, sans-serif; font-size: 12px; font-weight: 200;" fill="rgb(50, 49, 63)" stroke="none" stroke-width="1px">600</text><text x="271.40625" y="0" dx="0em" dy="0.95em" style="text-anchor: middle; visibility: hidden; font-family: &quot;Helvetica Neue&quot;, sans-serif; font-size: 12px; font-weight: 200;" fill="rgb(50, 49, 63)" stroke="none" stroke-width="1px">650</text></g><line x1="0" y1="0" x2="271.40625" y2="0" fill="rgb(0, 0, 0)" stroke="rgb(204, 204, 204)" stroke-width="1px"></line></g></g></g></g></svg>